<svg width="113" height="46" viewBox="0 0 113 46" fill="none" xmlns="http://www.w3.org/2000/svg"><g clip-path="url(#logo_svg__clip0)"><path d="M81.12 20.801c0 11.47-9.294 20.801-20.72 20.801-11.426 0-20.72-9.33-20.72-20.801C39.68 9.331 48.974 0 60.4 0c11.426 0 20.72 9.33 20.72 20.801z" fill="url(#logo_svg__paint0_linear)"></path><path d="M15.822 1.56H0v39.82h15.822V1.56z" fill="url(#logo_svg__paint1_linear)"></path><path d="M15.821 1.56h4.011c10.952 0 19.832 8.915 19.832 19.91 0 10.995-8.88 19.91-19.832 19.91h-4.01V1.56z" fill="url(#logo_svg__paint2_linear)"></path><path d="M70.478 22.45l1.643-6.061h4.662L72.67 27.962H68.82l-1.51-4.68-1.51 4.68h-3.848L57.84 16.388H62.5l1.643 6.063 1.643-6.063h3.034l1.657 6.063zM88.816 16.388v11.574H84.42v-4.13h-2.738v4.13h-4.396V16.389h4.396v4.13h2.738v-4.13h4.395zM90.296 27.962V16.389h4.396v11.574h-4.396zM104.119 24.65v3.298h-7.963V16.373h4.396v8.261h3.567v.015zM109.433 19.701v1.1h2.738v2.749h-2.738v1.1H113v3.298h-7.963V16.373H113v3.299h-3.567v.03zM85.027 36.342v2.809h-9.102s4.336-4.755 4.899-5.855c.459-.876-.03-1.411-.474-1.411-.488 0-.932.253-.932 1.412l-3.478-.238c0-2.2 1.554-3.982 4.41-3.982 2.753 0 4.44 1.456 4.44 3.521 0 1.293-1.11 2.749-2.338 3.744h2.575zM103.601 36.342v2.809h-9.102s4.337-4.755 4.899-5.855c.459-.876-.03-1.411-.474-1.411-.488 0-.932.253-.932 1.412l-3.478-.238c0-2.2 1.554-3.982 4.41-3.982 2.753 0 4.44 1.456 4.44 3.521 0 1.293-1.11 2.749-2.338 3.744h2.575zM89.764 39.388c2.583 0 4.677-2.308 4.677-5.155 0-2.848-2.094-5.156-4.677-5.156-2.583 0-4.677 2.308-4.677 5.156 0 2.847 2.094 5.155 4.677 5.155zM108.323 39.388c2.583 0 4.677-2.308 4.677-5.155 0-2.848-2.094-5.156-4.677-5.156-2.583 0-4.677 2.308-4.677 5.156 0 2.847 2.094 5.155 4.677 5.155z" fill="#fff"></path><path d="M81.12 20.801c0 11.47-9.294 20.801-20.72 20.801-11.426 0-20.72-9.33-20.72-20.801C39.68 9.331 48.974 0 60.4 0c11.426 0 20.72 9.33 20.72 20.801z" fill="url(#logo_svg__paint3_linear)"></path><path d="M15.822 1.56H0v39.82h15.822V1.56z" fill="url(#logo_svg__paint4_linear)"></path><path d="M15.821 1.56h4.011c10.952 0 19.832 8.915 19.832 19.91 0 10.995-8.88 19.91-19.832 19.91h-4.01V1.56z" fill="url(#logo_svg__paint5_linear)"></path><path d="M70.478 22.45l1.643-6.061h4.662L72.67 27.962H68.82l-1.51-4.68-1.51 4.68h-3.848L57.84 16.388H62.5l1.643 6.063 1.643-6.063h3.034l1.657 6.063zM88.816 16.388v11.574H84.42v-4.13h-2.738v4.13h-4.396V16.389h4.396v4.13h2.738v-4.13h4.395zM90.296 27.962V16.389h4.396v11.574h-4.396zM104.119 24.65v3.298h-7.963V16.373h4.396v8.261h3.567v.015zM109.433 19.701v1.1h2.738v2.749h-2.738v1.1H113v3.298h-7.963V16.373H113v3.299h-3.567v.03zM85.027 36.342v2.809h-9.102s4.336-4.755 4.899-5.855c.459-.876-.03-1.411-.474-1.411-.488 0-.932.253-.932 1.412l-3.478-.238c0-2.2 1.554-3.982 4.41-3.982 2.753 0 4.44 1.456 4.44 3.521 0 1.293-1.11 2.749-2.338 3.744h2.575zM103.601 36.342v2.809h-9.102s4.337-4.755 4.899-5.855c.459-.876-.03-1.411-.474-1.411-.488 0-.932.253-.932 1.412l-3.478-.238c0-2.2 1.554-3.982 4.41-3.982 2.753 0 4.44 1.456 4.44 3.521 0 1.293-1.11 2.749-2.338 3.744h2.575zM89.764 39.388c2.583 0 4.677-2.308 4.677-5.155 0-2.848-2.094-5.156-4.677-5.156-2.583 0-4.677 2.308-4.677 5.156 0 2.847 2.094 5.155 4.677 5.155zM108.323 39.388c2.583 0 4.677-2.308 4.677-5.155 0-2.848-2.094-5.156-4.677-5.156-2.583 0-4.677 2.308-4.677 5.156 0 2.847 2.094 5.155 4.677 5.155z" fill="#fff"></path></g><defs><linearGradient id="logo_svg__paint0_linear" x1="48.721" y1="5.807" x2="73.091" y2="36.839" gradientUnits="userSpaceOnUse"><stop offset="0.003" stop-color="#FF008E"></stop><stop offset="0.103" stop-color="#FF238A"></stop><stop offset="0.241" stop-color="#FF4D85"></stop><stop offset="0.383" stop-color="#FF6F81"></stop><stop offset="0.526" stop-color="#FF8A7E"></stop><stop offset="0.672" stop-color="#FF9D7C"></stop><stop offset="0.821" stop-color="#FFA87A"></stop><stop offset="0.98" stop-color="#FFAC7A"></stop></linearGradient><linearGradient id="logo_svg__paint1_linear" x1="4.372" y1="5.072" x2="12.45" y2="42.241" gradientUnits="userSpaceOnUse"><stop stop-color="#FF008E"></stop><stop offset="1" stop-color="#FFAC7A"></stop></linearGradient><linearGradient id="logo_svg__paint2_linear" x1="15.816" y1="21.467" x2="39.665" y2="21.467" gradientUnits="userSpaceOnUse"><stop stop-color="#FFCD1E"></stop><stop offset="1" stop-color="#FFF566"></stop></linearGradient><linearGradient id="logo_svg__paint3_linear" x1="48.721" y1="5.807" x2="73.091" y2="36.839" gradientUnits="userSpaceOnUse"><stop offset="0.003" stop-color="#FF008E"></stop><stop offset="0.103" stop-color="#FF238A"></stop><stop offset="0.241" stop-color="#FF4D85"></stop><stop offset="0.383" stop-color="#FF6F81"></stop><stop offset="0.526" stop-color="#FF8A7E"></stop><stop offset="0.672" stop-color="#FF9D7C"></stop><stop offset="0.821" stop-color="#FFA87A"></stop><stop offset="0.98" stop-color="#FFAC7A"></stop></linearGradient><linearGradient id="logo_svg__paint4_linear" x1="4.372" y1="5.072" x2="12.45" y2="42.241" gradientUnits="userSpaceOnUse"><stop stop-color="#FF008E"></stop><stop offset="1" stop-color="#FFAC7A"></stop></linearGradient><linearGradient id="logo_svg__paint5_linear" x1="15.816" y1="21.467" x2="39.665" y2="21.467" gradientUnits="userSpaceOnUse"><stop stop-color="#FFCD1E"></stop><stop offset="1" stop-color="#FFF566"></stop></linearGradient><clipPath id="logo_svg__clip0"><path fill="#fff" d="M0 0h113v46H0z"></path></clipPath></defs></svg>